<?xml version="1.0"?><svg fill="#E6BA45" xmlns="http://www.w3.org/2000/svg"  viewBox="0 0 50 50" width="70px" height="70px">    <path d="M 15 2 C 12.250484 2 10 4.2504839 10 7 L 10 43 C 10 45.749516 12.250484 48 15 48 L 35 48 C 37.749516 48 40 45.749516 40 43 L 40 7 C 40 4.2504839 37.749516 2 35 2 L 15 2 z M 35.646484 4.0722656 C 36.998596 4.3651885 38 5.5544775 38 7 L 38 43 C 38 44.668484 36.668484 46 35 46 L 15 46 C 13.331516 46 12 44.668484 12 43 L 12 7 C 12 5.5738985 12.9763 4.4006127 14.300781 4.0878906 C 14.304489 4.0891134 14.306816 4.0925674 14.310547 4.09375 C 15.030547 4.32275 15.555687 4.926875 15.679688 5.671875 L 15.982422 7.4921875 C 16.223422 8.9451875 17.468406 10 18.941406 10 L 30.941406 10 C 32.415406 10 33.659391 8.9441875 33.900391 7.4921875 L 34.203125 5.671875 C 34.330881 4.9053365 34.897613 4.2784813 35.646484 4.0722656 z M 22 5 L 25 5 C 25.553 5 26 5.448 26 6 C 26 6.552 25.553 7 25 7 L 22 7 C 21.447 7 21 6.552 21 6 C 21 5.448 21.447 5 22 5 z M 28 5 C 28.552 5 29 5.448 29 6 C 29 6.552 28.552 7 28 7 C 27.448 7 27 6.552 27 6 C 27 5.448 27.448 5 28 5 z"/></svg>