<svg xmlns="http://www.w3.org/2000/svg"  viewBox="0 0 32 32" width="70px" height="70px"><path fill="#333" d="M17.057,30c4.767,0,9.17-2.384,11.78-6.378c0.203-0.311,0.217-0.708,0.037-1.033 c-0.18-0.324-0.496-0.536-0.896-0.514l-0.238,0.013c-6.648,0-12.057-5.386-12.057-12.006c0-2.322,0.675-4.581,1.951-6.535 c0.203-0.31,0.217-0.707,0.038-1.031C17.492,2.191,17.159,1.993,16.777,2C9.18,2.15,3,8.427,3,15.994C3,23.717,9.306,30,17.057,30z M14.999,4.174c-0.865,1.845-1.316,3.855-1.316,5.907c0,7.151,5.407,13.068,12.362,13.905C23.772,26.527,20.526,28,17.057,28 C10.409,28,5,22.614,5,15.994C5,10.124,9.343,5.159,14.999,4.174z"/></svg>